PathFileType	4	(X/Y/Z)	C:/Users/beibeiliu/ov580/test_trc\sequence.4_training_dense_left.trc
DataRate	CameraRate	NumFrames	NumMarkers	Units	OrigDataRate	OrigDataStartFrame	OrigNumFrames
120	120	19	19	mm	120	194	258
Frame#	Time	ThumbCMC			ThumbMCP			ThumbIP			ThumbTip			IndexMCP			IndexPIP			IndexTip			MiddleMCP			MiddlePIP			MiddleTip			RingMCP			RingPIP			RingTip			PinkyMCP			PinkyPIP			PinkyTip			BackHand1			BackHand2			BackHand3	
		X0	Y0	Z0	X1	Y1	Z1	X2	Y2	Z2	X3	Y3	Z3	X4	Y4	Z4	X5	Y5	Z5	X6	Y6	Z6	X7	Y7	Z7	X8	Y8	Z8	X9	Y9	Z9	X10	Y10	Z10	X11	Y11	Z11	X12	Y12	Z12	X13	Y13	Z13	X14	Y14	Z14	X15	Y15	Z15	X16	Y16	Z16	X17	Y17	Z17	X18	Y18	Z18	
193	1.60833	-172.827	-9.67078	21.1134	-166.784	-2.795	-9.53679	-170.245	10.5967	-32.4596	-177.04	17.3146	-52.2452	-176.453	50.5041	-17.1705	-173.419	59.0352	-35.8438	-173.336	69.4351	-58.0261	-194.907	35.6553	-33.3784	-194.627	13.2861	-48.6427	-195.004	-5.92065	-21.3501	-213.066	21.6661	-34.1425	-203.466	-3.32649	-35.3971	-202.653	-11.3837	-10.9402	-226.231	17.4136	-24.7533	-216.721	-6.72752	-30.248	-210.283	-9.88795	-0.833108	-223.118	23.3764	15.86	-225.597	3.90381	39.5756	-195.015	13.8856	32.4131	
194	1.61667	-171.26	-6.35547	16.3035	-160.585	-4.19891	-12.4014	-165.155	3.19573	-32.659	-176.34	13.166	-52.4479	-173.12	45.703	-23.6748	-168.488	54.287	-46.9332	-165.014	59.7711	-64.3962	-189.741	31.8906	-36.5566	-189.597	4.69717	-50.7442	-191.893	-9.98708	-24.1182	-208.977	19.6167	-34.4111	-201.873	-6.69623	-37.9228	-198.312	-10.7543	-6.66916	-223.441	13.4314	-28.751	-210.288	-9.53446	-27.5616	-205.369	-7.93211	-2.10394	-218.339	22.83	14.4215	-218.458	4.63281	35.8262	-192.851	14.4523	30.4215	
195	1.625	-167.599	-9.59565	16.4975	-158.985	-8.36139	-12.4597	-160.827	1.36614	-37.0901	-169.689	4.52928	-56.1531	-168.283	40.1636	-28.2012	-166.225	47.1084	-55.2491	-163.293	48.8172	-75.9136	-188.192	26.8838	-43.0945	-189.732	1.72836	-56.2647	-186.012	-14.1239	-23.9292	-208.089	13.4944	-37.9042	-200.845	-12.955	-38.6536	-196.65	-15.7695	-10.373	-219.013	7.31551	-32.3435	-208.23	-12.3417	-31.062	-201.544	-6.74152	-3.84131	-212.816	24.5395	10.2099	-212.37	9.71948	31.7285	-187.677	19.3756	23.1905	
196	1.63333	-166.769	-7.78604	14.0486	-156.701	-11.169	-13.1256	-157.609	-6.20224	-38.1283	-168.504	1.1193	-62.6481	-165.472	35.2937	-35.7589	-166.162	37.4903	-58.3474	-165.259	37.5649	-84.1519	-187.679	22.1708	-45.0379	-188.46	-7.71226	-57.2188	-180.907	-21.1174	-27.2271	-204.689	7.86679	-42.8016	-193.304	-18.0585	-38.1798	-190.889	-17.5803	-11.4519	-217.169	3.75119	-33.9135	-206.243	-17.8681	-31.2433	-200.757	-11.8374	-5.5834	-211.949	22.9662	6.03058	-211.768	11.7331	31.6327	-182.111	17.0777	22.3683	
197	1.64167	-159.947	-7.52564	12.7566	-154.398	-13.5865	-13.8344	-157.052	-7.56745	-40.0394	-161.676	-6.1298	-62.5827	-164.022	30.6376	-43.5748	-165.444	30.4439	-68.324	-163.22	27.4555	-88.6234	-188.608	17.4777	-49.7957	-183.508	-8.42443	-63.7288	-180.265	-29.1313	-34.7873	-202.931	5.30264	-45.5269	-194.226	-20.2047	-44.4533	-192.485	-24.4655	-17.1715	-216.811	0.815958	-36.737	-206.631	-20.907	-34.426	-196.505	-19.5833	-11.3684	-207.093	22.2387	2.03718	-208.12	10.1027	30.3424	-182.053	18.944	15.3548	
198	1.65	-157.101	-9.89581	14.7409	-153.56	-13.5354	-14.2395	-151.774	-12.4801	-36.9095	-156.52	-8.75666	-61.2454	-164.389	23.9798	-44.1258	-161.058	23.3784	-69.9045	-164.961	18.7931	-92.8332	-187.922	13.9137	-55.7227	-188.09	-12.7582	-68.6834	-181.939	-36.1672	-48.0391	-206.103	5.0036	-46.6917	-199.899	-23.8191	-50.434	-190.284	-32.1014	-27.9436	-219.708	0.660987	-36.0804	-210.01	-23.4636	-39.9737	-197.36	-27.2603	-17.7523	-206.567	22.2766	-1.5221	-204.006	12.5829	26.8515	-179.11	18.2285	16.2172	
199	1.65833	-159.795	-8.01101	11.8905	-150.849	-12.4653	-14.7332	-147.702	-11.7715	-40.1055	-150.238	-12.7101	-57.6329	-165.299	19.957	-49.8856	-163.033	15.8777	-71.6154	-161.43	9.54507	-95.3677	-183.732	13.1628	-56.4558	-186.846	-7.70884	-73.7102	-187.482	-38.4766	-66.5787	-202.793	5.65998	-48.6759	-199.253	-19.3303	-59.0739	-193.321	-39.3812	-39.7254	-219.876	-3.13473	-41.1101	-210.875	-21.8763	-45.6307	-200.356	-34.0719	-25.4046	-200.572	19.4468	-2.22942	-202.592	13.9805	26.2535	-172.902	19.4183	10.8226	
200	1.66667	-155.719	-8.56301	12.302	-146.131	-14.0253	-13.0211	-141.155	-15.0307	-36.7275	-144.917	-14.1866	-56.1671	-163.179	14.8724	-52.3205	-159.107	9.73144	-71.4793	-157.524	1.18735	-95.9663	-185.341	11.7694	-53.1414	-181.529	-9.0182	-79.435	-188.046	-37.3224	-80.3321	-199.255	6.44674	-46.9787	-200.828	-14.3586	-65.7392	-192.963	-41.5202	-58.1473	-216.622	-0.600896	-37.8466	-211.995	-21.5667	-49.5751	-200.223	-41.5644	-34.9455	-201.645	16.7584	0.86511	-202.078	13.2686	26.5214	-176.324	16.817	14.1793	
201	1.675	-152.143	-10.3509	13.1776	-138.908	-18.9297	-7.93205	-136.386	-17.6069	-30.1066	-134.86	-18.7448	-50.9307	-161.488	8.7996	-49.8606	-158.554	2.77422	-75.8211	-156.379	-5.18291	-93.7333	-178.902	8.39177	-55.389	-180.437	-9.56357	-80.8813	-184.763	-33.546	-92.0045	-201.943	4.30056	-50.9945	-201.57	-15.7948	-70.5371	-196.987	-42.053	-73.7826	-217.374	-1.87897	-39.3705	-214.038	-23.3653	-54.8641	-203.777	-42.4072	-48.4453	-199.253	15.7911	-3.80185	-196.65	12.1624	26.8896	-172.469	15.2595	13.517	
202	1.68333	-150.866	-13.8823	17.8357	-141.947	-17.3099	-9.27313	-134.111	-19.0633	-29.6669	-126.037	-22.6677	-47.9096	-155.762	2.49741	-48.4208	-152.473	-3.12579	-74.7955	-154.707	-11.2103	-94.295	-176.496	3.37663	-54.4216	-176.359	-10.3896	-83.0083	-184.984	-29.6618	-97.9601	-195.102	0.698327	-50.3704	-196.621	-11.1713	-70.6663	-196.288	-32.8302	-83.6798	-214.421	-5.5382	-41.5651	-215.141	-17.6504	-56.3335	-208.481	-41.031	-63.0782	-194.532	11.0885	-5.32964	-193.517	12.5938	22.9865	-170.463	11.1552	6.94844	
203	1.69167	-148.113	-14.783	14.2969	-135.042	-21.772	-9.07948	-127.039	-23.4163	-29.5186	-123.528	-25.0683	-45.3777	-156.873	-3.85543	-51.1971	-150.565	-9.09328	-72.4661	-152.554	-17.1569	-95.7802	-177.117	-3.33823	-55.4795	-176.068	-13.3782	-82.3838	-179.284	-30.3447	-102.376	-198.839	-5.2285	-50.0731	-197.59	-16.6965	-75.9151	-200.785	-32.1064	-93.0255	-213.872	-9.85859	-37.0234	-215.938	-21.6669	-58.7444	-212.572	-37.1323	-69.7801	-196.538	6.30764	-7.47333	-197.234	9.60942	21.8449	-166.158	6.64689	5.3508	
204	1.7	-150.881	-18.2974	14.5661	-134.33	-25.4023	-6.24199	-127.984	-29.0817	-23.4904	-117.007	-30.8834	-44.3099	-151.521	-13.6736	-54.9891	-153.647	-18.439	-76.2357	-150.084	-25.6297	-98.8569	-178.997	-11.4834	-57.5942	-178.263	-18.7664	-80.608	-183.891	-33.0158	-104.116	-195.13	-12.9388	-50.8997	-198.379	-21.6982	-76.2928	-201.437	-30.8515	-91.9935	-214.379	-16.5838	-37.1335	-218.548	-25.6192	-57.1618	-221.33	-38.2863	-73.4096	-191.822	0.133003	-7.51687	-191.711	4.2487	18.4537	-167.312	2.78804	4.88434	
205	1.70833	-146.082	-22.6603	15.2001	-133.833	-30.8961	-1.14435	-124.654	-32.5867	-25.2034	-111.845	-35.959	-37.6322	-152.999	-22.2403	-50.3718	-146.815	-28.2521	-74.3876	-147.276	-32.7326	-95.5101	-174.456	-20.4526	-57.7057	-178.59	-27.5961	-81.1356	-180.961	-39.2433	-106.425	-198.222	-21.2269	-53.5283	-199.986	-28.0743	-75.3671	-197.294	-34.8829	-91.8338	-213.016	-24.5119	-41.387	-219.161	-32.3189	-56.273	-219.932	-38.8273	-73.7143	-191.632	-5.34932	-9.12907	-196.583	-1.08159	17.0137	-168.975	-3.39105	3.5213	
206	1.71667	-148.66	-26.9554	15.1605	-134.538	-34.786	-1.25047	-125.404	-37.6316	-21.9109	-108.744	-39.1718	-36.9506	-155.071	-30.4264	-51.0491	-146.733	-36.9387	-74.5988	-143.752	-40.7208	-94.2236	-174.134	-30.4274	-58.4328	-178.883	-37.2787	-80.6485	-177.454	-45.2999	-103.696	-197.815	-29.9446	-49.4566	-197.674	-35.474	-72.6095	-201.239	-42.9365	-93.8041	-213.415	-33.4207	-35.0079	-218.548	-39.6061	-55.4764	-221.816	-45.2628	-76.5487	-191.659	-12.9184	-9.70253	-196.978	-5.38375	17.8709	-166.807	-10.6811	1.04237	
207	1.725	-151.003	-30.6	18.7545	-134.693	-39.1501	1.47324	-122.738	-40.4384	-19.5704	-108.553	-43.0222	-29.6929	-152.554	-37.7953	-50.8124	-146.193	-44.2373	-69.5106	-143.54	-48.7766	-89.8772	-176.6	-37.4782	-57.4228	-177.694	-43.3702	-78.1664	-179.624	-50.0853	-103.718	-193.905	-37.7835	-50.0394	-201.368	-43.001	-68.9452	-199.499	-48.2637	-88.9688	-218.08	-40.3273	-35.5979	-223.132	-44.9329	-52.4842	-228.324	-51.5249	-71.8698	-193.076	-19.9229	-7.7451	-196.43	-9.88771	14.589	-169.98	-14.8443	5.34339	
208	1.73333	-152.385	-34.5538	21.7813	-138.503	-41.5054	1.2701	-122.529	-44.1936	-16.8033	-108.667	-46.8558	-30.4987	-155.479	-44.1128	-49.2779	-145.07	-50.3247	-68.6064	-143.639	-54.9039	-87.7023	-178.396	-42.5183	-53.9073	-176.98	-50.6402	-77.013	-181.068	-56.452	-104.171	-200.039	-42.8795	-46.9554	-197.814	-49.8793	-71.1139	-201.244	-53.6058	-90.8911	-214.756	-45.1098	-35.8105	-222.328	-51.8308	-54.0955	-226.905	-53.793	-67.1152	-195.595	-25.1504	-5.09246	-199.537	-15.1122	16.9392	-173.637	-19.3614	4.59901	
209	1.74167	-154.63	-37.2684	22.0243	-139.153	-44.4621	5.93894	-125.192	-46.7193	-18.0901	-113.236	-48.7844	-27.6224	-155.83	-47.9067	-44.5821	-150.015	-56.2074	-66.3503	-146.859	-60.4192	-88.2435	-181.474	-47.4542	-53.4352	-179.68	-55.087	-77.2785	-177.105	-60.6716	-101.15	-197.889	-47.296	-45.5775	-198.804	-52.8981	-66.9535	-201.439	-58.3299	-89.7746	-219.496	-50.0379	-33.3852	-226.365	-55.0737	-50.3555	-230.032	-58.6494	-70.4782	-198.678	-28.0189	-6.14608	-197.51	-19.164	13.5552	-175.471	-20.8472	5.8795	
210	1.75	-155.993	-38.0119	19.4726	-140.812	-46.748	4.92014	-129.677	-49.4225	-15.8758	-113.176	-50.3815	-27.2323	-153.629	-50.9668	-47.0937	-148.007	-58.6227	-67.4425	-148.392	-63.4336	-85.8591	-181.397	-51.0055	-54.6192	-179.581	-57.952	-72.6509	-182.787	-65.0309	-102.17	-203.071	-51.0192	-46.0581	-200.812	-56.7994	-64.9547	-203.426	-61.8055	-86.7656	-222.346	-50.8215	-30.9306	-227.61	-56.6479	-49.8395	-229.891	-59.0999	-68.6779	-198.514	-28.629	-3.82762	-202.449	-21.1069	19.8127	-174.674	-25.1716	3.06221	
211	1.75833	-159.289	-39.2826	21.2723	-142.692	-46.2593	1.84003	-127.816	-49.6494	-16.1861	-117.413	-52.2671	-25.1083	-154.667	-51.339	-47.2604	-152.499	-58.6168	-65.125	-149.2	-64.1823	-88.714	-184.668	-51.0612	-52.5245	-182.191	-58.7155	-72.1447	-185.653	-66.4244	-100.702	-205.034	-51.5533	-48.4871	-204.894	-57.0373	-67.9834	-206.528	-63.161	-88.9736	-223.053	-52.0708	-34.0275	-227.136	-57.6598	-47.3172	-231.184	-58.875	-65.8217	-203.349	-30.518	-6.88295	-204.387	-22.2077	15.8709	-173.614	-23.665	3.78914	
